<svg width="250" height="59" viewBox="0 0 250 59" fill="none" xmlns="http://www.w3.org/2000/svg">
<path d="M27.96 18.4401V9.4801H27.52C27.36 9.7201 27.1867 9.9601 27 10.2001C26.8133 10.4134 26.6267 10.6134 26.44 10.8001C26.28 10.9601 26.12 11.1068 25.96 11.2401C25.8267 11.3468 25.7333 11.4001 25.68 11.4001C25.6267 11.4001 25.3867 11.2534 24.96 10.9601C24.5333 10.6668 23.92 10.3468 23.12 10.0001C22.32 9.65343 21.32 9.33343 20.12 9.0401C18.92 8.74676 17.52 8.6001 15.92 8.6001C14.16 8.6001 12.5733 8.78676 11.16 9.1601C9.74667 9.53343 8.48 10.0401 7.36 10.6801C6.24 11.2934 5.26667 12.0134 4.44 12.8401C3.61333 13.6668 2.92 14.5334 2.36 15.4401C1.88 16.2134 1.48 16.9868 1.16 17.7601C0.866667 18.5068 0.626667 19.2268 0.44 19.9201C0.28 20.6134 0.16 21.2668 0.08 21.8801C0.0266667 22.4934 0 23.0401 0 23.5201C0 25.6801 0.373333 27.6668 1.12 29.4801C1.86667 31.2668 2.93333 32.8134 4.32 34.1201C5.73333 35.4001 7.44 36.4001 9.44 37.1201C11.44 37.8134 13.68 38.1601 16.16 38.1601C17.6533 38.1601 18.9733 38.0401 20.12 37.8001C21.2667 37.5334 22.24 37.2401 23.04 36.9201C23.84 36.5734 24.4533 36.2668 24.88 36.0001C25.3067 35.7068 25.5467 35.5601 25.6 35.5601C25.7333 35.5601 25.9733 35.7468 26.32 36.1201C26.6667 36.4934 27 36.9068 27.32 37.3601H27.8L27.92 28.5601H27.44C27.2 29.7068 26.7467 30.8268 26.08 31.9201C25.44 32.9868 24.64 33.9334 23.68 34.7601C22.7467 35.5868 21.6667 36.2534 20.44 36.7601C19.24 37.2668 17.9467 37.5201 16.56 37.5201C14.8 37.5201 13.2 37.1601 11.76 36.4401C10.32 35.7201 9.09333 34.7468 8.08 33.5201C7.06667 32.2668 6.28 30.8001 5.72 29.1201C5.18667 27.4401 4.92 25.6401 4.92 23.7201C4.92 21.9068 5.17333 20.1468 5.68 18.4401C6.21333 16.7068 6.96 15.1601 7.92 13.8001C8.90667 12.4401 10.12 11.3468 11.56 10.5201C13 9.69343 14.64 9.2801 16.48 9.2801C17.8133 9.2801 19.0667 9.5201 20.24 10.0001C21.44 10.4801 22.5067 11.1334 23.44 11.9601C24.4 12.7868 25.2267 13.7601 25.92 14.8801C26.6133 16.0001 27.1333 17.2001 27.48 18.4801L27.96 18.4401Z" fill="#29315E"/>
<path d="M48.5347 34.0801H48.2947C48.188 34.4801 47.988 34.8134 47.6947 35.0801C47.4014 35.3201 46.948 35.4401 46.3347 35.4401C45.8014 35.4401 45.3214 35.2534 44.8947 34.8801C44.4947 34.4801 44.2947 33.6801 44.2947 32.4801C44.2947 31.5734 44.2947 30.7468 44.2947 30.0001C44.3214 29.2268 44.3347 28.4801 44.3347 27.7601C44.3347 27.0401 44.3347 26.2934 44.3347 25.5201C44.3614 24.7468 44.3747 23.8801 44.3747 22.9201C44.3747 22.4668 44.3614 22.0134 44.3347 21.5601C44.308 21.0801 44.2414 20.7468 44.1347 20.5601C43.868 20.0268 43.428 19.5868 42.8147 19.2401C42.2014 18.8668 41.548 18.6801 40.8547 18.6801C40.508 18.6801 40.0547 18.7601 39.4947 18.9201C38.9614 19.0801 38.3614 19.2934 37.6947 19.5601C37.0547 19.8268 36.3747 20.1468 35.6547 20.5201C34.9347 20.8934 34.228 21.2801 33.5347 21.6801C33.3214 21.8134 33.068 21.9601 32.7747 22.1201C32.508 22.2801 32.2547 22.4668 32.0147 22.6801C31.7747 22.8934 31.5747 23.1334 31.4147 23.4001C31.2547 23.6668 31.1747 23.9601 31.1747 24.2801C31.1747 24.6801 31.3214 25.0401 31.6147 25.3601C31.9347 25.6534 32.308 25.8001 32.7347 25.8001C33.188 25.8001 33.6014 25.6534 33.9747 25.3601C34.3747 25.0668 34.5747 24.7334 34.5747 24.3601V22.5601C34.5747 22.4001 34.668 22.2134 34.8547 22.0001C35.0414 21.7601 35.2947 21.5334 35.6147 21.3201C35.9347 21.0801 36.2947 20.8934 36.6947 20.7601C37.1214 20.6001 37.548 20.5201 37.9747 20.5201C38.6147 20.5201 39.1347 20.6134 39.5347 20.8001C39.9347 20.9601 40.2414 21.1468 40.4547 21.3601C40.6947 21.5734 40.8547 21.7868 40.9347 22.0001C41.0414 22.1868 41.0947 22.3068 41.0947 22.3601V26.4801C40.828 26.6401 40.4947 26.8268 40.0947 27.0401C39.7214 27.2268 39.2814 27.4668 38.7747 27.7601C38.268 28.0268 37.668 28.3601 36.9747 28.7601C36.308 29.1601 35.5347 29.6401 34.6547 30.2001C33.7747 30.7601 33.028 31.3868 32.4147 32.0801C31.828 32.7734 31.5347 33.4934 31.5347 34.2401C31.5347 34.9334 31.6414 35.5201 31.8547 36.0001C32.0947 36.4801 32.388 36.8801 32.7347 37.2001C33.108 37.4934 33.508 37.7068 33.9347 37.8401C34.388 37.9468 34.828 38.0001 35.2547 38.0001C35.9747 38.0001 36.628 37.8934 37.2147 37.6801C37.828 37.4401 38.3747 37.1334 38.8547 36.7601C39.3614 36.3868 39.788 35.9868 40.1347 35.5601C40.508 35.1334 40.8014 34.7468 41.0147 34.4001L41.0947 34.4401C41.0947 35.7734 41.4414 36.7068 42.1347 37.2401C42.8547 37.7734 43.668 38.0401 44.5747 38.0401C45.1347 38.0401 45.6414 37.9468 46.0947 37.7601C46.5747 37.5468 46.988 37.2534 47.3347 36.8801C47.6814 36.4801 47.9614 36.0401 48.1747 35.5601C48.388 35.0801 48.508 34.5868 48.5347 34.0801ZM41.0947 33.2801C41.0947 33.7334 40.9347 34.1068 40.6147 34.4001C40.1614 34.8534 39.668 35.1601 39.1347 35.3201C38.6014 35.4801 37.988 35.5601 37.2947 35.5601C36.5214 35.5601 35.8947 35.2801 35.4147 34.7201C34.9347 34.1601 34.6947 33.5334 34.6947 32.8401C34.6947 32.1468 34.9347 31.5334 35.4147 31.0001C35.9214 30.4401 36.508 29.9334 37.1747 29.4801C37.868 29.0268 38.5747 28.6134 39.2947 28.2401C40.0147 27.8401 40.6147 27.4668 41.0947 27.1201V33.2801Z" fill="#29315E"/>
<path d="M62.6244 32.1601C62.6244 30.8001 62.1977 29.6534 61.3444 28.7201C60.5177 27.7868 59.5044 27.1734 58.3044 26.8801C57.7977 26.7468 57.1977 26.6134 56.5044 26.4801C55.811 26.3201 55.171 26.1734 54.5844 26.0401C53.731 25.8268 53.0244 25.5068 52.4644 25.0801C51.9044 24.6534 51.6244 23.9468 51.6244 22.9601C51.6244 22.3468 51.731 21.8134 51.9444 21.3601C52.1577 20.8801 52.4244 20.4934 52.7444 20.2001C53.091 19.8801 53.4777 19.6401 53.9044 19.4801C54.3577 19.3201 54.811 19.2401 55.2644 19.2401C56.011 19.2401 56.6644 19.3734 57.2244 19.6401C57.811 19.9068 58.331 20.2934 58.7844 20.8001C59.2377 21.2801 59.651 21.8668 60.0244 22.5601C60.3977 23.2268 60.771 23.9601 61.1444 24.7601L61.4644 24.6801L60.9844 19.7201C60.211 19.4268 59.3977 19.1868 58.5444 19.0001C57.691 18.7868 56.7044 18.6801 55.5844 18.6801C54.7044 18.6801 53.8777 18.8134 53.1044 19.0801C52.331 19.3201 51.651 19.6801 51.0644 20.1601C50.4777 20.6401 50.011 21.2134 49.6644 21.8801C49.3177 22.5468 49.1444 23.2934 49.1444 24.1201C49.1444 25.3201 49.451 26.3468 50.0644 27.2001C50.7044 28.0534 51.531 28.6534 52.5444 29.0001C53.0777 29.1868 53.6777 29.3601 54.3444 29.5201C55.011 29.6801 55.7044 29.8268 56.4244 29.9601C57.331 30.1468 58.0377 30.5201 58.5444 31.0801C59.0777 31.6134 59.3444 32.2934 59.3444 33.1201C59.3444 34.6401 58.9577 35.7734 58.1844 36.5201C57.4377 37.2401 56.4244 37.6001 55.1444 37.6001C54.2644 37.6001 53.5044 37.4134 52.8644 37.0401C52.2244 36.6401 51.6777 36.1468 51.2244 35.5601C50.771 34.9468 50.3844 34.2934 50.0644 33.6001C49.7444 32.8801 49.4777 32.2001 49.2644 31.5601H48.9444V36.8401C49.8244 37.2401 50.7844 37.5468 51.8244 37.7601C52.8644 37.9734 53.971 38.0801 55.1444 38.0801C56.131 38.0801 57.0644 37.9734 57.9444 37.7601C58.851 37.5468 59.651 37.2001 60.3444 36.7201C61.0377 36.2401 61.5844 35.6268 61.9844 34.8801C62.411 34.1068 62.6244 33.2001 62.6244 32.1601Z" fill="#29315E"/>
<path d="M81.7378 34.0801H81.4978C81.3911 34.4801 81.1911 34.8134 80.8978 35.0801C80.6045 35.3201 80.1511 35.4401 79.5378 35.4401C79.0045 35.4401 78.5245 35.2534 78.0978 34.8801C77.6978 34.4801 77.4978 33.6801 77.4978 32.4801C77.4978 31.5734 77.4978 30.7468 77.4978 30.0001C77.5245 29.2268 77.5378 28.4801 77.5378 27.7601C77.5378 27.0401 77.5378 26.2934 77.5378 25.5201C77.5645 24.7468 77.5778 23.8801 77.5778 22.9201C77.5778 22.4668 77.5645 22.0134 77.5378 21.5601C77.5111 21.0801 77.4445 20.7468 77.3378 20.5601C77.0712 20.0268 76.6311 19.5868 76.0178 19.2401C75.4045 18.8668 74.7512 18.6801 74.0578 18.6801C73.7112 18.6801 73.2578 18.7601 72.6978 18.9201C72.1645 19.0801 71.5645 19.2934 70.8978 19.5601C70.2578 19.8268 69.5778 20.1468 68.8578 20.5201C68.1378 20.8934 67.4312 21.2801 66.7378 21.6801C66.5245 21.8134 66.2711 21.9601 65.9778 22.1201C65.7111 22.2801 65.4578 22.4668 65.2178 22.6801C64.9778 22.8934 64.7778 23.1334 64.6178 23.4001C64.4578 23.6668 64.3778 23.9601 64.3778 24.2801C64.3778 24.6801 64.5245 25.0401 64.8178 25.3601C65.1378 25.6534 65.5111 25.8001 65.9378 25.8001C66.3911 25.8001 66.8045 25.6534 67.1778 25.3601C67.5778 25.0668 67.7778 24.7334 67.7778 24.3601V22.5601C67.7778 22.4001 67.8711 22.2134 68.0578 22.0001C68.2445 21.7601 68.4978 21.5334 68.8178 21.3201C69.1378 21.0801 69.4978 20.8934 69.8978 20.7601C70.3245 20.6001 70.7511 20.5201 71.1778 20.5201C71.8178 20.5201 72.3378 20.6134 72.7378 20.8001C73.1378 20.9601 73.4445 21.1468 73.6578 21.3601C73.8978 21.5734 74.0578 21.7868 74.1378 22.0001C74.2445 22.1868 74.2978 22.3068 74.2978 22.3601V26.4801C74.0311 26.6401 73.6978 26.8268 73.2978 27.0401C72.9245 27.2268 72.4845 27.4668 71.9778 27.7601C71.4711 28.0268 70.8711 28.3601 70.1778 28.7601C69.5111 29.1601 68.7378 29.6401 67.8578 30.2001C66.9778 30.7601 66.2311 31.3868 65.6178 32.0801C65.0311 32.7734 64.7378 33.4934 64.7378 34.2401C64.7378 34.9334 64.8445 35.5201 65.0578 36.0001C65.2978 36.4801 65.5911 36.8801 65.9378 37.2001C66.3111 37.4934 66.7111 37.7068 67.1378 37.8401C67.5911 37.9468 68.0311 38.0001 68.4578 38.0001C69.1778 38.0001 69.8311 37.8934 70.4178 37.6801C71.0312 37.4401 71.5778 37.1334 72.0578 36.7601C72.5645 36.3868 72.9911 35.9868 73.3378 35.5601C73.7112 35.1334 74.0045 34.7468 74.2178 34.4001L74.2978 34.4401C74.2978 35.7734 74.6445 36.7068 75.3378 37.2401C76.0578 37.7734 76.8711 38.0401 77.7778 38.0401C78.3378 38.0401 78.8445 37.9468 79.2978 37.7601C79.7778 37.5468 80.1911 37.2534 80.5378 36.8801C80.8845 36.4801 81.1645 36.0401 81.3778 35.5601C81.5911 35.0801 81.7112 34.5868 81.7378 34.0801ZM74.2978 33.2801C74.2978 33.7334 74.1378 34.1068 73.8178 34.4001C73.3645 34.8534 72.8711 35.1601 72.3378 35.3201C71.8045 35.4801 71.1911 35.5601 70.4978 35.5601C69.7245 35.5601 69.0978 35.2801 68.6178 34.7201C68.1378 34.1601 67.8978 33.5334 67.8978 32.8401C67.8978 32.1468 68.1378 31.5334 68.6178 31.0001C69.1245 30.4401 69.7112 29.9334 70.3778 29.4801C71.0712 29.0268 71.7778 28.6134 72.4978 28.2401C73.2178 27.8401 73.8178 27.4668 74.2978 27.1201V33.2801Z" fill="#29315E"/>
<path d="M117.986 29.7601L117.586 29.6401C117.266 30.4401 116.933 31.2134 116.586 31.9601C116.239 32.6801 115.813 33.3601 115.306 34.0001C114.799 34.6134 114.186 35.1601 113.466 35.6401C112.773 36.1201 111.893 36.5068 110.826 36.8001C110.373 36.9334 109.853 37.0401 109.266 37.1201C108.679 37.2001 108.106 37.2668 107.546 37.3201C106.986 37.3468 106.466 37.3734 105.986 37.4001C105.533 37.4001 105.199 37.4001 104.986 37.4001C104.453 37.4001 103.919 37.3734 103.386 37.3201C102.853 37.2401 102.359 37.1601 101.906 37.0801C101.453 36.9734 101.066 36.8534 100.746 36.7201C100.426 36.5868 100.213 36.4534 100.106 36.3201C99.8659 35.9468 99.7193 35.3734 99.6659 34.6001C99.6393 33.8268 99.6126 33.0134 99.5859 32.1601C99.5859 31.2534 99.5726 30.4401 99.5459 29.7201C99.5459 28.9734 99.5459 28.2534 99.5459 27.5601C99.5459 26.8668 99.5459 26.1601 99.5459 25.4401C99.5459 24.6934 99.5459 23.8668 99.5459 22.9601C99.5459 21.9734 99.5459 21.0801 99.5459 20.2801C99.5459 19.4801 99.5459 18.7068 99.5459 17.9601C99.5726 17.2134 99.5859 16.4534 99.5859 15.6801C99.6126 14.9068 99.6393 14.0534 99.6659 13.1201C99.6926 12.4001 99.8526 11.8268 100.146 11.4001C100.466 10.9468 100.839 10.6001 101.266 10.3601C101.693 10.1201 102.146 9.94676 102.626 9.8401C103.106 9.73343 103.519 9.65343 103.866 9.6001V9.2001H91.1059V9.6001C91.7993 9.6801 92.4526 9.8401 93.0659 10.0801C93.7059 10.3201 94.2126 10.6668 94.5859 11.1201C94.7459 11.3068 94.8659 11.5601 94.9459 11.8801C95.0259 12.2001 95.0793 12.5734 95.1059 13.0001C95.1593 13.4001 95.1859 13.8401 95.1859 14.3201C95.1859 14.7734 95.1859 15.2401 95.1859 15.7201V23.4801C95.1859 24.2001 95.1859 24.9734 95.1859 25.8001C95.1859 26.6001 95.1726 27.3868 95.1459 28.1601C95.1459 28.9068 95.1326 29.6001 95.1059 30.2401C95.1059 30.8801 95.1059 31.3868 95.1059 31.7601C95.1059 32.1868 95.0793 32.6268 95.0259 33.0801C94.9993 33.5068 94.9593 33.9201 94.9059 34.3201C94.8526 34.7201 94.7726 35.0801 94.6659 35.4001C94.5859 35.6934 94.4793 35.9201 94.3459 36.0801C93.9726 36.5068 93.4526 36.8401 92.7859 37.0801C92.1459 37.3201 91.4926 37.4934 90.8259 37.6001V38.0001H116.506L117.986 29.7601Z" fill="#29315E"/>
<path d="M136.386 34.0801H136.146C136.04 34.4801 135.84 34.8134 135.546 35.0801C135.253 35.3201 134.8 35.4401 134.186 35.4401C133.653 35.4401 133.173 35.2534 132.746 34.8801C132.346 34.4801 132.146 33.6801 132.146 32.4801C132.146 31.5734 132.146 30.7468 132.146 30.0001C132.173 29.2268 132.186 28.4801 132.186 27.7601C132.186 27.0401 132.186 26.2934 132.186 25.5201C132.213 24.7468 132.226 23.8801 132.226 22.9201C132.226 22.4668 132.213 22.0134 132.186 21.5601C132.16 21.0801 132.093 20.7468 131.986 20.5601C131.72 20.0268 131.28 19.5868 130.666 19.2401C130.053 18.8668 129.4 18.6801 128.706 18.6801C128.36 18.6801 127.906 18.7601 127.346 18.9201C126.813 19.0801 126.213 19.2934 125.546 19.5601C124.906 19.8268 124.226 20.1468 123.506 20.5201C122.786 20.8934 122.08 21.2801 121.386 21.6801C121.173 21.8134 120.92 21.9601 120.626 22.1201C120.36 22.2801 120.106 22.4668 119.866 22.6801C119.626 22.8934 119.426 23.1334 119.266 23.4001C119.106 23.6668 119.026 23.9601 119.026 24.2801C119.026 24.6801 119.173 25.0401 119.466 25.3601C119.786 25.6534 120.16 25.8001 120.586 25.8001C121.04 25.8001 121.453 25.6534 121.826 25.3601C122.226 25.0668 122.426 24.7334 122.426 24.3601V22.5601C122.426 22.4001 122.52 22.2134 122.706 22.0001C122.893 21.7601 123.146 21.5334 123.466 21.3201C123.786 21.0801 124.146 20.8934 124.546 20.7601C124.973 20.6001 125.4 20.5201 125.826 20.5201C126.466 20.5201 126.986 20.6134 127.386 20.8001C127.786 20.9601 128.093 21.1468 128.306 21.3601C128.546 21.5734 128.706 21.7868 128.786 22.0001C128.893 22.1868 128.946 22.3068 128.946 22.3601V26.4801C128.68 26.6401 128.346 26.8268 127.946 27.0401C127.573 27.2268 127.133 27.4668 126.626 27.7601C126.12 28.0268 125.52 28.3601 124.826 28.7601C124.16 29.1601 123.386 29.6401 122.506 30.2001C121.626 30.7601 120.88 31.3868 120.266 32.0801C119.68 32.7734 119.386 33.4934 119.386 34.2401C119.386 34.9334 119.493 35.5201 119.706 36.0001C119.946 36.4801 120.24 36.8801 120.586 37.2001C120.96 37.4934 121.36 37.7068 121.786 37.8401C122.24 37.9468 122.68 38.0001 123.106 38.0001C123.826 38.0001 124.48 37.8934 125.066 37.6801C125.68 37.4401 126.226 37.1334 126.706 36.7601C127.213 36.3868 127.64 35.9868 127.986 35.5601C128.36 35.1334 128.653 34.7468 128.866 34.4001L128.946 34.4401C128.946 35.7734 129.293 36.7068 129.986 37.2401C130.706 37.7734 131.52 38.0401 132.426 38.0401C132.986 38.0401 133.493 37.9468 133.946 37.7601C134.426 37.5468 134.84 37.2534 135.186 36.8801C135.533 36.4801 135.813 36.0401 136.026 35.5601C136.24 35.0801 136.36 34.5868 136.386 34.0801ZM128.946 33.2801C128.946 33.7334 128.786 34.1068 128.466 34.4001C128.013 34.8534 127.52 35.1601 126.986 35.3201C126.453 35.4801 125.84 35.5601 125.146 35.5601C124.373 35.5601 123.746 35.2801 123.266 34.7201C122.786 34.1601 122.546 33.5334 122.546 32.8401C122.546 32.1468 122.786 31.5334 123.266 31.0001C123.773 30.4401 124.36 29.9334 125.026 29.4801C125.72 29.0268 126.426 28.6134 127.146 28.2401C127.866 27.8401 128.466 27.4668 128.946 27.1201V33.2801Z" fill="#29315E"/>
<path d="M172.634 29.7601L172.234 29.6401C171.914 30.4401 171.581 31.2134 171.234 31.9601C170.888 32.6801 170.461 33.3601 169.954 34.0001C169.448 34.6134 168.834 35.1601 168.114 35.6401C167.421 36.1201 166.541 36.5068 165.474 36.8001C165.021 36.9334 164.501 37.0401 163.914 37.1201C163.328 37.2001 162.754 37.2668 162.194 37.3201C161.634 37.3468 161.114 37.3734 160.634 37.4001C160.181 37.4001 159.848 37.4001 159.634 37.4001C159.101 37.4001 158.568 37.3734 158.034 37.3201C157.501 37.2401 157.008 37.1601 156.554 37.0801C156.101 36.9734 155.714 36.8534 155.394 36.7201C155.074 36.5868 154.861 36.4534 154.754 36.3201C154.514 35.9468 154.368 35.3734 154.314 34.6001C154.288 33.8268 154.261 33.0134 154.234 32.1601C154.234 31.2534 154.221 30.4401 154.194 29.7201C154.194 28.9734 154.194 28.2534 154.194 27.5601C154.194 26.8668 154.194 26.1601 154.194 25.4401C154.194 24.6934 154.194 23.8668 154.194 22.9601C154.194 21.9734 154.194 21.0801 154.194 20.2801C154.194 19.4801 154.194 18.7068 154.194 17.9601C154.221 17.2134 154.234 16.4534 154.234 15.6801C154.261 14.9068 154.288 14.0534 154.314 13.1201C154.341 12.4001 154.501 11.8268 154.794 11.4001C155.114 10.9468 155.488 10.6001 155.914 10.3601C156.341 10.1201 156.794 9.94676 157.274 9.8401C157.754 9.73343 158.168 9.65343 158.514 9.6001V9.2001H145.754V9.6001C146.448 9.6801 147.101 9.8401 147.714 10.0801C148.354 10.3201 148.861 10.6668 149.234 11.1201C149.394 11.3068 149.514 11.5601 149.594 11.8801C149.674 12.2001 149.728 12.5734 149.754 13.0001C149.808 13.4001 149.834 13.8401 149.834 14.3201C149.834 14.7734 149.834 15.2401 149.834 15.7201V23.4801C149.834 24.2001 149.834 24.9734 149.834 25.8001C149.834 26.6001 149.821 27.3868 149.794 28.1601C149.794 28.9068 149.781 29.6001 149.754 30.2401C149.754 30.8801 149.754 31.3868 149.754 31.7601C149.754 32.1868 149.728 32.6268 149.674 33.0801C149.648 33.5068 149.608 33.9201 149.554 34.3201C149.501 34.7201 149.421 35.0801 149.314 35.4001C149.234 35.6934 149.128 35.9201 148.994 36.0801C148.621 36.5068 148.101 36.8401 147.434 37.0801C146.794 37.3201 146.141 37.4934 145.474 37.6001V38.0001H171.154L172.634 29.7601Z" fill="#29315E"/>
<path d="M192.675 37.0001V36.7601C192.355 36.6268 191.955 36.4534 191.475 36.2401C191.021 36.0268 190.675 35.8534 190.435 35.7201C190.248 35.5868 190.128 35.4668 190.075 35.3601C190.048 35.2534 190.035 35.0934 190.035 34.8801V19.0801H183.315V19.5201C183.901 19.5734 184.461 19.6401 184.995 19.7201C185.555 19.8001 185.995 19.9068 186.315 20.0401C186.475 20.2534 186.581 20.5734 186.635 21.0001C186.688 21.4001 186.715 21.7334 186.715 22.0001V33.4001C186.475 33.7201 186.208 34.0268 185.915 34.3201C185.648 34.6134 185.341 34.8801 184.995 35.1201C184.675 35.3334 184.301 35.5201 183.875 35.6801C183.475 35.8134 182.995 35.8801 182.435 35.8801C180.968 35.8801 179.968 35.4668 179.435 34.6401C178.901 33.7868 178.635 32.4801 178.635 30.7201V19.0801H172.435V19.5201C172.675 19.5468 172.928 19.5734 173.195 19.6001C173.461 19.6001 173.715 19.6268 173.955 19.6801C174.195 19.7334 174.408 19.8134 174.595 19.9201C174.808 20.0268 174.968 20.2001 175.075 20.4401C175.128 20.5201 175.155 20.6534 175.155 20.8401C175.181 21.0001 175.208 21.1868 175.235 21.4001C175.261 21.5868 175.275 21.7734 175.275 21.9601C175.275 22.1468 175.275 22.2934 175.275 22.4001V32.1601C175.275 34.1068 175.675 35.5868 176.475 36.6001C177.301 37.6134 178.568 38.1201 180.275 38.1201C181.021 38.1201 181.715 38.0001 182.355 37.7601C183.021 37.5201 183.621 37.2001 184.155 36.8001C184.688 36.3734 185.168 35.9068 185.595 35.4001C186.021 34.8934 186.381 34.4134 186.675 33.9601L186.715 34.0001V38.0401H186.995L192.675 37.0001Z" fill="#29315E"/>
<path d="M213.852 38.0001V37.6401C213.612 37.6134 213.346 37.5868 213.052 37.5601C212.786 37.5068 212.532 37.4534 212.292 37.4001C212.052 37.3201 211.839 37.2134 211.652 37.0801C211.492 36.9468 211.412 36.7868 211.412 36.6001V24.8401C211.412 23.0268 210.999 21.5468 210.172 20.4001C209.346 19.2534 208.159 18.6801 206.612 18.6801C205.892 18.6801 205.199 18.8268 204.532 19.1201C203.866 19.3868 203.252 19.7334 202.692 20.1601C202.132 20.5868 201.626 21.0668 201.172 21.6001C200.746 22.1068 200.386 22.5868 200.092 23.0401L200.012 23.0001V18.6801H199.772L194.532 20.5601V20.8001C194.852 20.9334 195.172 21.0934 195.492 21.2801C195.812 21.4401 196.092 21.5868 196.332 21.7201C196.519 21.8534 196.626 21.9734 196.652 22.0801C196.706 22.1868 196.732 22.3468 196.732 22.5601V36.3201C196.732 36.7468 196.506 37.0534 196.052 37.2401C195.626 37.4268 195.106 37.5468 194.492 37.6001V38.0001H202.212V37.6001C201.946 37.5468 201.692 37.5201 201.452 37.5201C201.212 37.4934 200.999 37.4534 200.812 37.4001C200.626 37.3468 200.466 37.2668 200.332 37.1601C200.199 37.0268 200.106 36.8268 200.052 36.5601V23.4401C200.772 22.7201 201.426 22.1734 202.012 21.8001C202.599 21.4268 203.332 21.2401 204.212 21.2401C205.599 21.2401 206.586 21.7201 207.172 22.6801C207.759 23.6134 208.052 24.8534 208.052 26.4001V36.4801C208.052 36.9068 207.839 37.1868 207.412 37.3201C206.986 37.4268 206.412 37.5068 205.692 37.5601V38.0001H213.852Z" fill="#29315E"/>
<path d="M232.832 34.0801H232.592C232.485 34.4801 232.285 34.8134 231.992 35.0801C231.698 35.3201 231.245 35.4401 230.632 35.4401C230.098 35.4401 229.618 35.2534 229.192 34.8801C228.792 34.4801 228.592 33.6801 228.592 32.4801C228.592 31.5734 228.592 30.7468 228.592 30.0001C228.618 29.2268 228.632 28.4801 228.632 27.7601C228.632 27.0401 228.632 26.2934 228.632 25.5201C228.658 24.7468 228.672 23.8801 228.672 22.9201C228.672 22.4668 228.658 22.0134 228.632 21.5601C228.605 21.0801 228.538 20.7468 228.432 20.5601C228.165 20.0268 227.725 19.5868 227.112 19.2401C226.498 18.8668 225.845 18.6801 225.152 18.6801C224.805 18.6801 224.352 18.7601 223.792 18.9201C223.258 19.0801 222.658 19.2934 221.992 19.5601C221.352 19.8268 220.672 20.1468 219.952 20.5201C219.232 20.8934 218.525 21.2801 217.832 21.6801C217.618 21.8134 217.365 21.9601 217.072 22.1201C216.805 22.2801 216.552 22.4668 216.312 22.6801C216.072 22.8934 215.872 23.1334 215.712 23.4001C215.552 23.6668 215.472 23.9601 215.472 24.2801C215.472 24.6801 215.618 25.0401 215.912 25.3601C216.232 25.6534 216.605 25.8001 217.032 25.8001C217.485 25.8001 217.898 25.6534 218.272 25.3601C218.672 25.0668 218.872 24.7334 218.872 24.3601V22.5601C218.872 22.4001 218.965 22.2134 219.152 22.0001C219.338 21.7601 219.592 21.5334 219.912 21.3201C220.232 21.0801 220.592 20.8934 220.992 20.7601C221.418 20.6001 221.845 20.5201 222.272 20.5201C222.912 20.5201 223.432 20.6134 223.832 20.8001C224.232 20.9601 224.538 21.1468 224.752 21.3601C224.992 21.5734 225.152 21.7868 225.232 22.0001C225.338 22.1868 225.392 22.3068 225.392 22.3601V26.4801C225.125 26.6401 224.792 26.8268 224.392 27.0401C224.018 27.2268 223.578 27.4668 223.072 27.7601C222.565 28.0268 221.965 28.3601 221.272 28.7601C220.605 29.1601 219.832 29.6401 218.952 30.2001C218.072 30.7601 217.325 31.3868 216.712 32.0801C216.125 32.7734 215.832 33.4934 215.832 34.2401C215.832 34.9334 215.938 35.5201 216.152 36.0001C216.392 36.4801 216.685 36.8801 217.032 37.2001C217.405 37.4934 217.805 37.7068 218.232 37.8401C218.685 37.9468 219.125 38.0001 219.552 38.0001C220.272 38.0001 220.925 37.8934 221.512 37.6801C222.125 37.4401 222.672 37.1334 223.152 36.7601C223.658 36.3868 224.085 35.9868 224.432 35.5601C224.805 35.1334 225.098 34.7468 225.312 34.4001L225.392 34.4401C225.392 35.7734 225.738 36.7068 226.432 37.2401C227.152 37.7734 227.965 38.0401 228.872 38.0401C229.432 38.0401 229.938 37.9468 230.392 37.7601C230.872 37.5468 231.285 37.2534 231.632 36.8801C231.978 36.4801 232.258 36.0401 232.472 35.5601C232.685 35.0801 232.805 34.5868 232.832 34.0801ZM225.392 33.2801C225.392 33.7334 225.232 34.1068 224.912 34.4001C224.458 34.8534 223.965 35.1601 223.432 35.3201C222.898 35.4801 222.285 35.5601 221.592 35.5601C220.818 35.5601 220.192 35.2801 219.712 34.7201C219.232 34.1601 218.992 33.5334 218.992 32.8401C218.992 32.1468 219.232 31.5334 219.712 31.0001C220.218 30.4401 220.805 29.9334 221.472 29.4801C222.165 29.0268 222.872 28.6134 223.592 28.2401C224.312 27.8401 224.912 27.4668 225.392 27.1201V33.2801Z" fill="#29315E"/>
<path d="M249.19 10.2181C247.672 11.5706 245.67 12.3924 243.476 12.3924C238.729 12.3924 234.88 8.54384 234.88 3.79638C234.88 2.4336 235.197 1.14488 235.762 0C233.994 1.57443 232.88 3.86804 232.88 6.42174C232.88 11.1692 236.729 15.0178 241.476 15.0178C244.861 15.0178 247.788 13.0616 249.19 10.2181Z" fill="#29315E"/>
<path d="M78.04 50.9999V57.9999H76.74V54.9999H73.12V57.9999H71.82V50.9999H73.12V53.8899H76.74V50.9999H78.04Z" fill="#29315E"/>
<path d="M83.1857 58.0999C82.4724 58.0999 81.829 57.9466 81.2557 57.6399C80.6824 57.3266 80.2324 56.8966 79.9057 56.3499C79.579 55.7966 79.4157 55.1799 79.4157 54.4999C79.4157 53.8199 79.579 53.2066 79.9057 52.6599C80.2324 52.1066 80.6824 51.6766 81.2557 51.3699C81.829 51.0566 82.4724 50.8999 83.1857 50.8999C83.899 50.8999 84.5424 51.0566 85.1157 51.3699C85.689 51.6766 86.139 52.1032 86.4657 52.6499C86.7924 53.1966 86.9557 53.8132 86.9557 54.4999C86.9557 55.1866 86.7924 55.8032 86.4657 56.3499C86.139 56.8966 85.689 57.3266 85.1157 57.6399C84.5424 57.9466 83.899 58.0999 83.1857 58.0999ZM83.1857 56.9599C83.6524 56.9599 84.0724 56.8566 84.4457 56.6499C84.819 56.4366 85.1124 56.1432 85.3257 55.7699C85.539 55.3899 85.6457 54.9666 85.6457 54.4999C85.6457 54.0332 85.539 53.6132 85.3257 53.2399C85.1124 52.8599 84.819 52.5666 84.4457 52.3599C84.0724 52.1466 83.6524 52.0399 83.1857 52.0399C82.719 52.0399 82.299 52.1466 81.9257 52.3599C81.5524 52.5666 81.259 52.8599 81.0457 53.2399C80.8324 53.6132 80.7257 54.0332 80.7257 54.4999C80.7257 54.9666 80.8324 55.3899 81.0457 55.7699C81.259 56.1432 81.5524 56.4366 81.9257 56.6499C82.299 56.8566 82.719 56.9599 83.1857 56.9599Z" fill="#29315E"/>
<path d="M89.656 52.0999H87.336V50.9999H93.276V52.0999H90.956V57.9999H89.656V52.0999Z" fill="#29315E"/>
<path d="M99.5016 56.9099V57.9999H94.2516V50.9999H99.3616V52.0899H95.5517V53.9099H98.9316V54.9799H95.5517V56.9099H99.5016Z" fill="#29315E"/>
<path d="M100.951 50.9999H102.251V56.8999H105.911V57.9999H100.951V50.9999Z" fill="#29315E"/>
<path d="M114.951 58.1099L114.071 57.2599C113.418 57.8199 112.634 58.0999 111.721 58.0999C111.234 58.0999 110.798 58.0199 110.411 57.8599C110.024 57.6999 109.721 57.4799 109.501 57.1999C109.281 56.9132 109.171 56.5899 109.171 56.2299C109.171 55.7966 109.298 55.4166 109.551 55.0899C109.804 54.7566 110.218 54.4299 110.791 54.1099C110.511 53.8299 110.311 53.5699 110.191 53.3299C110.071 53.0832 110.011 52.8299 110.011 52.5699C110.011 52.0766 110.194 51.6799 110.561 51.3799C110.934 51.0732 111.428 50.9199 112.041 50.9199C112.608 50.9199 113.061 51.0599 113.401 51.3399C113.741 51.6132 113.911 51.9866 113.911 52.4599C113.911 52.8199 113.798 53.1399 113.571 53.4199C113.351 53.6999 112.988 53.9832 112.481 54.2699L113.991 55.7099C114.158 55.3832 114.288 54.9899 114.381 54.5299L115.391 54.8599C115.258 55.4799 115.048 56.0132 114.761 56.4599L115.641 57.2999L114.951 58.1099ZM112.041 51.8099C111.768 51.8099 111.551 51.8799 111.391 52.0199C111.231 52.1532 111.151 52.3299 111.151 52.5499C111.151 52.7099 111.194 52.8632 111.281 53.0099C111.368 53.1499 111.534 53.3432 111.781 53.5899C112.181 53.3699 112.458 53.1799 112.611 53.0199C112.771 52.8532 112.851 52.6732 112.851 52.4799C112.851 52.2732 112.778 52.1099 112.631 51.9899C112.491 51.8699 112.294 51.8099 112.041 51.8099ZM111.811 57.0799C112.391 57.0799 112.898 56.9032 113.331 56.5499L111.481 54.7799C111.081 54.9999 110.798 55.2132 110.631 55.4199C110.471 55.6199 110.391 55.8466 110.391 56.0999C110.391 56.3932 110.521 56.6299 110.781 56.8099C111.041 56.9899 111.384 57.0799 111.811 57.0799Z" fill="#29315E"/>
<path d="M124.105 57.9999L122.675 55.9499C122.615 55.9566 122.525 55.9599 122.405 55.9599H120.825V57.9999H119.525V50.9999H122.405C123.012 50.9999 123.538 51.0999 123.985 51.2999C124.438 51.4999 124.785 51.7866 125.025 52.1599C125.265 52.5332 125.385 52.9766 125.385 53.4899C125.385 54.0166 125.255 54.4699 124.995 54.8499C124.742 55.2299 124.375 55.5132 123.895 55.6999L125.505 57.9999H124.105ZM124.075 53.4899C124.075 53.0432 123.928 52.6999 123.635 52.4599C123.342 52.2199 122.912 52.0999 122.345 52.0999H120.825V54.8899H122.345C122.912 54.8899 123.342 54.7699 123.635 54.5299C123.928 54.2832 124.075 53.9366 124.075 53.4899Z" fill="#29315E"/>
<path d="M132.09 56.9099V57.9999H126.84V50.9999H131.95V52.0899H128.14V53.9099H131.52V54.9799H128.14V56.9099H132.09Z" fill="#29315E"/>
<path d="M135.709 58.0999C135.169 58.0999 134.645 58.0232 134.139 57.8699C133.639 57.7166 133.242 57.5132 132.949 57.2599L133.399 56.2499C133.685 56.4766 134.035 56.6632 134.449 56.8099C134.869 56.9499 135.289 57.0199 135.709 57.0199C136.229 57.0199 136.615 56.9366 136.869 56.7699C137.129 56.6032 137.259 56.3832 137.259 56.1099C137.259 55.9099 137.185 55.7466 137.039 55.6199C136.899 55.4866 136.719 55.3832 136.499 55.3099C136.279 55.2366 135.979 55.1532 135.599 55.0599C135.065 54.9332 134.632 54.8066 134.299 54.6799C133.972 54.5532 133.689 54.3566 133.449 54.0899C133.215 53.8166 133.099 53.4499 133.099 52.9899C133.099 52.6032 133.202 52.2532 133.409 51.9399C133.622 51.6199 133.939 51.3666 134.359 51.1799C134.785 50.9932 135.305 50.8999 135.919 50.8999C136.345 50.8999 136.765 50.9532 137.179 51.0599C137.592 51.1666 137.949 51.3199 138.249 51.5199L137.839 52.5299C137.532 52.3499 137.212 52.2132 136.879 52.1199C136.545 52.0266 136.222 51.9799 135.909 51.9799C135.395 51.9799 135.012 52.0666 134.759 52.2399C134.512 52.4132 134.389 52.6432 134.389 52.9299C134.389 53.1299 134.459 53.2932 134.599 53.4199C134.745 53.5466 134.929 53.6466 135.149 53.7199C135.369 53.7932 135.669 53.8766 136.049 53.9699C136.569 54.0899 136.995 54.2166 137.329 54.3499C137.662 54.4766 137.945 54.6732 138.179 54.9399C138.419 55.2066 138.539 55.5666 138.539 56.0199C138.539 56.4066 138.432 56.7566 138.219 57.0699C138.012 57.3832 137.695 57.6332 137.269 57.8199C136.842 58.0066 136.322 58.0999 135.709 58.0999Z" fill="#29315E"/>
<path d="M143.098 58.0999C142.384 58.0999 141.741 57.9466 141.168 57.6399C140.594 57.3266 140.144 56.8966 139.818 56.3499C139.491 55.7966 139.328 55.1799 139.328 54.4999C139.328 53.8199 139.491 53.2066 139.818 52.6599C140.144 52.1066 140.594 51.6766 141.168 51.3699C141.741 51.0566 142.384 50.8999 143.098 50.8999C143.811 50.8999 144.454 51.0566 145.028 51.3699C145.601 51.6766 146.051 52.1032 146.378 52.6499C146.704 53.1966 146.868 53.8132 146.868 54.4999C146.868 55.1866 146.704 55.8032 146.378 56.3499C146.051 56.8966 145.601 57.3266 145.028 57.6399C144.454 57.9466 143.811 58.0999 143.098 58.0999ZM143.098 56.9599C143.564 56.9599 143.984 56.8566 144.358 56.6499C144.731 56.4366 145.024 56.1432 145.238 55.7699C145.451 55.3899 145.558 54.9666 145.558 54.4999C145.558 54.0332 145.451 53.6132 145.238 53.2399C145.024 52.8599 144.731 52.5666 144.358 52.3599C143.984 52.1466 143.564 52.0399 143.098 52.0399C142.631 52.0399 142.211 52.1466 141.838 52.3599C141.464 52.5666 141.171 52.8599 140.958 53.2399C140.744 53.6132 140.638 54.0332 140.638 54.4999C140.638 54.9666 140.744 55.3899 140.958 55.7699C141.171 56.1432 141.464 56.4366 141.838 56.6499C142.211 56.8566 142.631 56.9599 143.098 56.9599Z" fill="#29315E"/>
<path d="M152.826 57.9999L151.396 55.9499C151.336 55.9566 151.246 55.9599 151.126 55.9599H149.546V57.9999H148.246V50.9999H151.126C151.732 50.9999 152.259 51.0999 152.706 51.2999C153.159 51.4999 153.506 51.7866 153.746 52.1599C153.986 52.5332 154.106 52.9766 154.106 53.4899C154.106 54.0166 153.976 54.4699 153.716 54.8499C153.462 55.2299 153.096 55.5132 152.616 55.6999L154.226 57.9999H152.826ZM152.796 53.4899C152.796 53.0432 152.649 52.6999 152.356 52.4599C152.062 52.2199 151.632 52.0999 151.066 52.0999H149.546V54.8899H151.066C151.632 54.8899 152.062 54.7699 152.356 54.5299C152.649 54.2832 152.796 53.9366 152.796 53.4899Z" fill="#29315E"/>
<path d="M156.883 52.0999H154.563V50.9999H160.503V52.0999H158.183V57.9999H156.883V52.0999Z" fill="#29315E"/>
</svg>
