<svg width="14" height="14" viewBox="0 0 14 14" fill="none" xmlns="http://www.w3.org/2000/svg">
<path d="M13.6962 6.37205C13.9717 6.10349 14.069 5.70934 13.9501 5.34294C13.831 4.97654 13.5207 4.71498 13.1394 4.65948L9.74958 4.16693C9.60521 4.1459 9.48046 4.05535 9.41598 3.92444L7.90048 0.85307C7.73032 0.507975 7.38494 0.293518 7.00004 0.293518C6.61542 0.293518 6.27004 0.507975 6.09988 0.85307L4.5841 3.92472C4.51962 4.05563 4.39459 4.14618 4.25022 4.16721L0.860391 4.65976C0.479414 4.71498 0.168802 4.97682 0.0496586 5.34322C-0.069204 5.70962 0.0280727 6.10377 0.303643 6.37233L2.75631 8.76304C2.86087 8.86508 2.90881 9.01198 2.88414 9.15551L2.30553 12.5313C2.25422 12.8285 2.33216 13.1175 2.52447 13.3454C2.82331 13.7006 3.34501 13.8088 3.76215 13.5896L6.79371 11.9956C6.92042 11.9292 7.07993 11.9297 7.20637 11.9956L10.2382 13.5896C10.3857 13.6672 10.5429 13.7065 10.7052 13.7065C11.0016 13.7065 11.2825 13.5747 11.4756 13.3454C11.6682 13.1175 11.7459 12.8279 11.6946 12.5313L11.1157 9.15551C11.091 9.0117 11.1389 8.86508 11.2435 8.76304L13.6962 6.37205Z" fill="#F0BF5F"/>
</svg>
